<?xml version="1.0" encoding="UTF-8"?>
<svg version="1.1" xmlns="http://www.w3.org/2000/svg" width="512" height="512">
<path d="M0 0 C1.1510574 -0.00525911 1.1510574 -0.00525911 2.32536849 -0.01062447 C4.89979604 -0.01993718 7.47399731 -0.01501549 10.04843426 -0.01015663 C11.91161 -0.01389295 13.77478417 -0.0184944 15.63795584 -0.02388728 C20.76055353 -0.03613487 25.88308599 -0.03585474 31.00569499 -0.03349853 C36.52934092 -0.03309081 42.05296582 -0.0441252 47.57660198 -0.05361366 C58.3993425 -0.07023412 69.22206123 -0.07572368 80.04481343 -0.07683842 C88.8408405 -0.07778837 97.63686038 -0.08189599 106.43288517 -0.08823967 C127.30683135 -0.10298784 148.18077364 -0.1152891 169.05472565 -0.11424255 C169.72225542 -0.1142114 170.3897852 -0.11418024 171.07754315 -0.11414814 C174.4608468 -0.11398192 177.84415045 -0.11378384 181.2274541 -0.11357872 C182.23535497 -0.11351889 182.23535497 -0.11351889 183.26361748 -0.11345784 C184.62243152 -0.11337697 185.98124557 -0.11329337 187.34005961 -0.11320706 C208.48113448 -0.11198154 229.6221452 -0.12699499 250.76320171 -0.15435219 C274.51618192 -0.18507664 298.26912621 -0.20225914 322.02213115 -0.20042574 C334.59847215 -0.19976136 347.17474081 -0.20527478 359.75106525 -0.22678185 C370.45811355 -0.2449747 381.1650567 -0.24935651 391.87211374 -0.235763 C397.33548792 -0.22922391 402.79866025 -0.22915023 408.26201534 -0.2464695 C413.26406385 -0.26216339 418.26574985 -0.25937416 423.26778933 -0.24190123 C425.07664265 -0.23882324 426.88552278 -0.24249375 428.6943445 -0.25362138 C448.1457178 -0.36535173 448.1457178 -0.36535173 455.05513889 5.91939986 C462.32349135 13.37657633 462.68658031 22.05147125 462.66139507 31.93695641 C462.66663692 33.14489861 462.67187878 34.35284081 462.67727947 35.59738731 C462.68368223 38.14400021 462.68238542 40.69064275 462.67384624 43.23724937 C462.6653437 47.11295351 462.69411359 50.9871791 462.7258482 54.86273766 C462.7274607 57.34581013 462.72688174 59.8288852 462.72389507 62.31195641 C462.73512905 63.46017876 462.74636303 64.60840111 462.75793743 65.79141808 C462.68807662 73.94289614 461.46979825 81.16211489 456.29811382 87.69476891 C455.6561607 88.21039391 455.01420757 88.72601891 454.35280132 89.25726891 C453.71600445 89.79351891 453.07920757 90.32976891 452.42311382 90.88226891 C447.34521485 94.06273232 442.3182551 94.54863265 436.45560265 94.51453781 C435.68823104 94.51804389 434.92085944 94.52154996 434.13023415 94.52516228 C431.55580661 94.53447499 428.98160534 94.52955331 426.40716839 94.52469444 C424.54399265 94.52843076 422.68081848 94.53303221 420.8176468 94.53842509 C415.69504912 94.55067268 410.57251665 94.55039255 405.44990766 94.54803634 C399.92626173 94.54762862 394.40263683 94.55866301 388.87900066 94.56815147 C378.05626015 94.58477193 367.23354142 94.59026149 356.41078921 94.59137623 C347.61476214 94.59232618 338.81874227 94.5964338 330.02271748 94.60277748 C309.1487713 94.61752565 288.27482901 94.62982691 267.400877 94.62878036 C266.39958234 94.62873363 266.39958234 94.62873363 265.3780595 94.62868595 C261.99475584 94.62851973 258.61145219 94.62832165 255.22814854 94.62811653 C254.22024767 94.6280567 254.22024767 94.6280567 253.19198517 94.62799565 C251.83317112 94.62791478 250.47435708 94.62783118 249.11554303 94.62774487 C227.97446816 94.62651935 206.83345745 94.6415328 185.69240093 94.66889 C161.93942072 94.69961445 138.18647643 94.71679695 114.4334715 94.71496356 C101.85713049 94.71429917 89.28086184 94.71981259 76.70453739 94.74131966 C65.99748909 94.75951251 55.29054595 94.76389432 44.5834889 94.75030081 C39.12011473 94.74376172 33.6569424 94.74368805 28.1935873 94.76100731 C23.19153879 94.7767012 18.18985279 94.77391197 13.18781332 94.75643905 C11.37896 94.75336105 9.57007986 94.75703156 7.76125815 94.7681592 C-11.69011515 94.87988954 -11.69011515 94.87988954 -18.59953624 88.59513795 C-25.8678887 81.13796148 -26.23097766 72.46306656 -26.20579243 62.57758141 C-26.21103428 61.36963921 -26.21627613 60.16169701 -26.22167683 58.9171505 C-26.22807959 56.3705376 -26.22678277 53.82389506 -26.2182436 51.27728844 C-26.20974105 47.4015843 -26.23851094 43.52735872 -26.27024555 39.65180016 C-26.27185805 37.16872768 -26.2712791 34.68565261 -26.26829243 32.20258141 C-26.27952641 31.05435905 -26.29076038 29.9061367 -26.30233479 28.72311974 C-26.23247397 20.57164167 -25.01419561 13.35242292 -19.84251118 6.81976891 C-19.20055805 6.30414391 -18.55860493 5.78851891 -17.89719868 5.25726891 C-17.2604018 4.72101891 -16.62360493 4.18476891 -15.96751118 3.63226891 C-10.8896122 0.45180549 -5.86265245 -0.03409484 0 0 Z " fill="#4AA3FF" transform="translate(37.77219867706299,208.74273109436035)"/>
<path d="M0 0 C0.77673238 -0.00581376 1.55346477 -0.01162753 2.35373449 -0.01761746 C4.94819923 -0.0321785 7.5417121 -0.01835088 10.13616943 -0.00457001 C12.01828621 -0.00918047 13.90039938 -0.01553436 15.78250504 -0.02347898 C20.94820114 -0.04017544 26.11360162 -0.0319244 31.27929878 -0.01953411 C36.85266243 -0.0104873 42.42597508 -0.02445153 47.99932861 -0.0354538 C58.91507142 -0.0532475 69.83070425 -0.04939521 80.74645138 -0.03780323 C89.61729269 -0.02877255 98.48810317 -0.02754334 107.35894775 -0.0318985 C109.25220429 -0.0328179 109.25220429 -0.0328179 111.18370843 -0.03375587 C113.74772232 -0.03503476 116.3117362 -0.03633161 118.87575006 -0.03764623 C142.23729384 -0.04872927 165.59876706 -0.03723247 188.96029717 -0.01627585 C210.28295078 0.00270635 231.60550884 0.00100783 252.92816162 -0.01811981 C276.88881328 -0.03954208 300.84940523 -0.04795587 324.81007004 -0.03567076 C327.36469268 -0.03439655 329.91931533 -0.03313907 332.47393799 -0.0318985 C334.35936101 -0.03097285 334.35936101 -0.03097285 336.28287339 -0.03002849 C345.14385654 -0.02657367 354.0048058 -0.0324068 362.86578369 -0.04181671 C373.66321976 -0.05303091 384.4605395 -0.05000875 395.25796223 -0.02869374 C400.76779903 -0.01817562 406.27744182 -0.01407462 411.78727722 -0.02729034 C416.83053183 -0.03920407 421.87341247 -0.03266827 426.91663313 -0.01138014 C428.74155415 -0.00690979 430.56650673 -0.00919004 432.39140749 -0.01888329 C434.87234916 -0.03105093 437.35201073 -0.0185691 439.83288574 0 C440.89530369 -0.014047 440.89530369 -0.014047 441.97918463 -0.02837777 C448.18829788 0.06448603 453.42191451 2.16775403 457.93988037 6.39789581 C458.385896 7.0308255 458.83191162 7.66375519 459.29144287 8.31586456 C459.75292725 8.94105988 460.21441162 9.56625519 460.68988037 10.21039581 C464.42006762 17.18370765 464.22341424 24.16798233 464.21722412 31.90180206 C464.22150925 33.09133484 464.22579437 34.28086761 464.23020935 35.50644684 C464.23593796 38.01615514 464.23646377 40.52588005 464.2321167 43.03559113 C464.2289593 46.85847291 464.25242683 50.68057845 464.277771 54.50336456 C464.2800445 56.94867609 464.28074725 59.39398969 464.27972412 61.83930206 C464.28893387 62.97394897 464.29814362 64.10859589 464.30763245 65.27762604 C464.262732 73.04747299 463.27805875 79.50678384 459.29144287 86.25336456 C450.46133778 94.61872728 441.09003695 94.21706516 429.58992004 94.1450119 C427.70836205 94.15149285 425.82681051 94.1601487 423.94527143 94.1707862 C418.78564864 94.19357661 413.62647739 94.18522394 408.46683943 94.17164695 C402.89820906 94.16238987 397.32966817 94.1818844 391.76106262 94.19762421 C380.85613576 94.22371313 369.95137376 94.22262282 359.04642756 94.21158602 C350.18324859 94.20302782 341.32011733 94.20385823 332.45693779 94.21138191 C331.1954797 94.2124368 329.93402162 94.21349169 328.63433753 94.21457854 C326.07169663 94.21674947 323.50905575 94.21893624 320.94641488 94.22113869 C303.74104536 94.23505047 286.53569868 94.23970392 269.33033085 94.22489452 C268.6577929 94.22431576 267.98525495 94.22373699 267.29233706 94.22314068 C261.83111189 94.21837613 256.369887 94.21331809 250.90866211 94.20824295 C229.6059294 94.18865035 208.30338625 94.19785478 187.00067139 94.23065948 C163.05719287 94.26745274 139.11383988 94.28444502 115.17032236 94.27124721 C112.61680283 94.26990611 110.06328328 94.26859713 107.50976372 94.26732063 C105.62520531 94.26637463 105.62520531 94.26637463 103.70257502 94.26540953 C94.85101492 94.26238194 85.99953917 94.27364412 77.1479969 94.29057121 C66.35938031 94.3108918 55.57101645 94.31003297 44.78241307 94.28193881 C39.27830991 94.26816216 33.77464801 94.26399123 28.27056122 94.28588867 C23.23016606 94.30567646 18.1906009 94.29767983 13.15026312 94.26769433 C11.32870179 94.26169497 9.50707295 94.26577628 7.68556584 94.28105756 C-2.05729796 94.35682495 -10.36796679 94.30986558 -18.08355713 87.50336456 C-24.54302278 79.91349242 -24.39193746 71.59907705 -24.38433838 62.10492706 C-24.3886235 60.91539429 -24.39290863 59.72586151 -24.39732361 58.50028229 C-24.40305222 55.99057398 -24.40357803 53.48084908 -24.39923096 50.971138 C-24.39607356 47.14825622 -24.41954109 43.32615067 -24.44488525 39.50336456 C-24.44715876 37.05805303 -24.4478615 34.61273944 -24.44683838 32.16742706 C-24.45604813 31.03278015 -24.46525787 29.89813324 -24.4747467 28.72910309 C-24.42772266 20.59177607 -23.42584907 14.05026379 -18.89605713 7.19086456 C-13.32567225 1.86805235 -7.7074062 -0.1019052 0 0 Z " fill="#3491FF" transform="translate(36.08355712890625,354.4966354370117)"/>
<path d="M0 0 C1.88155799 -0.00648095 3.76310953 -0.01513679 5.64464861 -0.0257743 C10.80427141 -0.0485647 15.96344265 -0.04021204 21.12308061 -0.02663505 C26.69171099 -0.01737797 32.26025188 -0.03687249 37.82885742 -0.0526123 C48.73378428 -0.07870123 59.63854629 -0.07761092 70.54349249 -0.06657412 C79.40667145 -0.05801592 88.26980271 -0.05884633 97.13298225 -0.06637001 C99.02516938 -0.06795234 99.02516938 -0.06795234 100.95558252 -0.06956664 C103.51822341 -0.07173757 106.0808643 -0.07392434 108.64350516 -0.07612679 C125.84887469 -0.09003857 143.05422136 -0.09469202 160.2595892 -0.07988262 C160.93212715 -0.07930385 161.6046651 -0.07872509 162.29758298 -0.07812878 C167.75880815 -0.07336423 173.22003305 -0.06830619 178.68125793 -0.06323105 C199.98399064 -0.04363845 221.28653379 -0.05284288 242.58924866 -0.08564758 C266.53272717 -0.12244083 290.47608016 -0.13943312 314.41959769 -0.12623531 C316.97311722 -0.12489421 319.52663676 -0.12358523 322.08015633 -0.12230873 C323.96471473 -0.12136273 323.96471473 -0.12136273 325.88734503 -0.12039762 C334.73890513 -0.11737004 343.59038087 -0.12863222 352.44192314 -0.14555931 C363.23053974 -0.1658799 374.0189036 -0.16502106 384.80750697 -0.13692691 C390.31161014 -0.12315026 395.81527204 -0.11897932 401.31935883 -0.14087677 C406.35975399 -0.16066455 411.39931914 -0.15266792 416.43965692 -0.12268243 C418.26121825 -0.11668307 420.0828471 -0.12076437 421.90435421 -0.13604566 C431.647218 -0.21181305 439.95788684 -0.16485368 447.67347717 6.64164734 C454.13294283 14.23151948 453.9818575 22.54593485 453.97425842 32.04008484 C453.97854355 33.22961761 453.98282867 34.41915039 453.98724365 35.64472961 C453.99297227 38.15443792 453.99349808 40.66416282 453.989151 43.1738739 C453.9859936 46.99675569 454.00946113 50.81886123 454.0348053 54.64164734 C454.0370788 57.08695887 454.03778155 59.53227247 454.03675842 61.97758484 C454.04596817 63.11223175 454.05517792 64.24687866 454.06466675 65.41590881 C454.0176427 73.55323584 453.01576911 80.09474811 448.48597717 86.95414734 C442.9155923 92.27695955 437.29732624 94.2469171 429.58992004 94.1450119 C428.81318766 94.15082566 428.03645528 94.15663943 427.23618555 94.16262937 C424.64172081 94.1771904 422.04820794 94.16336278 419.45375061 94.14958191 C417.57163384 94.15419237 415.68952066 94.16054626 413.80741501 94.16849089 C408.6417189 94.18518734 403.47631843 94.1769363 398.31062126 94.16454601 C392.73725762 94.1554992 387.16394496 94.16946343 381.59059143 94.1804657 C370.67484863 94.1982594 359.75921579 94.19440711 348.84346867 94.18281513 C339.97262735 94.17378446 331.10181688 94.17255524 322.23097229 94.1769104 C320.33771576 94.1778298 320.33771576 94.1778298 318.40621161 94.17876777 C315.84219773 94.18004666 313.27818385 94.18134351 310.71416998 94.18265814 C287.3526262 94.19374117 263.99115298 94.18224438 240.62962288 94.16128775 C219.30696926 94.14230555 197.9844112 94.14400408 176.66175842 94.16313171 C152.70110676 94.18455398 128.74051481 94.19296777 104.77985001 94.18068266 C102.22522736 94.17940845 99.67060471 94.17815097 97.11598206 94.1769104 C95.85903337 94.1762933 94.60208469 94.1756762 93.30704665 94.17504039 C84.44606351 94.17158557 75.58511425 94.1774187 66.72413635 94.18682861 C55.92670028 94.19804281 45.12938054 94.19502065 34.33195782 94.17370564 C28.82212101 94.16318753 23.31247822 94.15908652 17.80264282 94.17230225 C12.75938821 94.18421597 7.71650757 94.17768017 2.67328691 94.15639204 C0.84836589 94.15192169 -0.97658669 94.15420194 -2.80148745 94.16389519 C-5.28242911 94.17606284 -7.76209068 94.163581 -10.2429657 94.1450119 C-11.30538365 94.1590589 -11.30538365 94.1590589 -12.38926458 94.17338967 C-18.59837784 94.08052587 -23.83199446 91.97725787 -28.34996033 87.74711609 C-28.79597595 87.1141864 -29.24199158 86.48125671 -29.70152283 85.82914734 C-30.1630072 85.20395203 -30.62449158 84.57875671 -31.09996033 83.93461609 C-34.83014758 76.96130426 -34.6334942 69.97702957 -34.62730408 62.24320984 C-34.6315892 61.05367706 -34.63587433 59.86414429 -34.64028931 58.63856506 C-34.64601792 56.12885676 -34.64654373 53.61913185 -34.64219666 51.10942078 C-34.63903926 47.28653899 -34.66250679 43.46443345 -34.68785095 39.64164734 C-34.69012446 37.19633581 -34.6908272 34.75102221 -34.68980408 32.30570984 C-34.69901382 31.17106293 -34.70822357 30.03641602 -34.7177124 28.86738586 C-34.67281195 21.09753892 -33.68813871 14.63822806 -29.70152283 7.89164734 C-20.87141774 -0.47371538 -11.5001169 -0.07205326 0 0 Z " fill="#5FB4FF" transform="translate(46.32652282714844,63.35835266113281)"/>
</svg>
